<mxfile host="app.diagrams.net" modified="2024-07-28T14:18:52.923Z" agent="5.0 (Windows NT 10.0; Win64; x64) AppleWebKit/537.36 (KHTML, like Gecko) Chrome/126.0.0.0 Safari/537.36" etag="8zF7Tfa_E2YgZEMF44in" version="18.1.2" type="github">
  <diagram id="r92XIAeypDnK82cuJvUw" name="Page-1">
    <mxGraphModel dx="862" dy="466" grid="1" gridSize="10" guides="1" tooltips="1" connect="1" arrows="1" fold="1" page="1" pageScale="1" pageWidth="827" pageHeight="1169" math="0" shadow="0">
      <root>
        <mxCell id="0" />
        <mxCell id="1" parent="0" />
        <mxCell id="1eGgguI6vYwpMU9shvwc-1" value="" style="rounded=0;whiteSpace=wrap;html=1;" vertex="1" parent="1">
          <mxGeometry x="430" y="30" width="326" height="160" as="geometry" />
        </mxCell>
        <mxCell id="1eGgguI6vYwpMU9shvwc-2" value="korpus" style="text;html=1;resizable=0;autosize=1;align=center;verticalAlign=middle;points=[];fillColor=none;strokeColor=none;rounded=0;" vertex="1" parent="1">
          <mxGeometry x="450" y="40" width="50" height="20" as="geometry" />
        </mxCell>
        <mxCell id="1eGgguI6vYwpMU9shvwc-4" value="xona raqami" style="text;html=1;resizable=0;autosize=1;align=center;verticalAlign=middle;points=[];fillColor=none;strokeColor=none;rounded=0;" vertex="1" parent="1">
          <mxGeometry x="520" y="60" width="80" height="20" as="geometry" />
        </mxCell>
        <mxCell id="1eGgguI6vYwpMU9shvwc-5" value="narxi&lt;br&gt;" style="text;html=1;resizable=0;autosize=1;align=center;verticalAlign=middle;points=[];fillColor=none;strokeColor=none;rounded=0;" vertex="1" parent="1">
          <mxGeometry x="520" y="80" width="40" height="20" as="geometry" />
        </mxCell>
        <mxCell id="1eGgguI6vYwpMU9shvwc-6" value="" style="swimlane;startSize=0;" vertex="1" parent="1">
          <mxGeometry x="110" y="140" width="200" height="200" as="geometry" />
        </mxCell>
        <mxCell id="1eGgguI6vYwpMU9shvwc-7" value="registratsiya" style="text;html=1;resizable=0;autosize=1;align=center;verticalAlign=middle;points=[];fillColor=none;strokeColor=none;rounded=0;" vertex="1" parent="1eGgguI6vYwpMU9shvwc-6">
          <mxGeometry x="30" y="30" width="80" height="20" as="geometry" />
        </mxCell>
        <mxCell id="1eGgguI6vYwpMU9shvwc-11" value="" style="endArrow=none;html=1;rounded=0;entryX=0;entryY=0.25;entryDx=0;entryDy=0;" edge="1" parent="1" target="1eGgguI6vYwpMU9shvwc-1">
          <mxGeometry width="50" height="50" relative="1" as="geometry">
            <mxPoint x="280" y="70" as="sourcePoint" />
            <mxPoint x="440" y="210" as="targetPoint" />
          </mxGeometry>
        </mxCell>
        <mxCell id="1eGgguI6vYwpMU9shvwc-12" value="" style="endArrow=classic;html=1;rounded=0;" edge="1" parent="1" target="1eGgguI6vYwpMU9shvwc-6">
          <mxGeometry width="50" height="50" relative="1" as="geometry">
            <mxPoint x="280" y="70" as="sourcePoint" />
            <mxPoint x="440" y="210" as="targetPoint" />
          </mxGeometry>
        </mxCell>
      </root>
    </mxGraphModel>
  </diagram>
</mxfile>
